# xmcd
#
# Track frame offsets:
#	150
#	12793
#	23940
#	39958
#	55575
#	78052
#	101872
#	116911
#	133088
#	149777
#	169898
#	180309
#	194478
#	209053
#	220117
#	232736
#	246150
#	261625
#
# Disc length: 3644 seconds
#
# Revision: 0
# Processed by: cddbd v1.5.2PL0 Copyright (c) Steve Scherf et al.
# Submitted via: EasyCDDAExtractor 10.2.0.1
#
DISCID=070e3a12
DTITLE=Various Artist - Lamp Music Group Vol.27
DYEAR=2000
DGENRE=Gospel
TTITLE0=Tony Peace - Somebody
TTITLE1=Old Paths Trio - The Fire Still Burns
TTITLE2=Eva Mae Lefever - Leave It There
TTITLE3=Diplomats Quartet - Go Down To The River
TTITLE4=Nicole,Watts Jenkins - Jesus Is Here
TTITLE5=Bilderbacks - Heart Of Flesh
TTITLE6=Relations Quartet - Soul Business
TTITLE7=Shadrix Trio - He Can't Get Past The Blood
TTITLE8=Pure Harmony - Only Day You Have
TTITLE9=The Stanleys - I'll Not Move
TTITLE10=Sounds Of Grace - If You Believe
TTITLE11=The Georgians - Happy Now,Got The Joy, Satisfied
TTITLE12=Graceway - Just As Faithful In The Storm
TTITLE13=Davis Family - Climbing Life's Mountain
TTITLE14=Justified - Sunday's Coming
TTITLE15=Joe and Gina Ables - Leaving In Style
TTITLE16=Wane Unrau - Rest In Me
TTITLE17=Rick Atkinson and Compassion - If The Church Don't Rise
EXTD=
EXTT0=
EXTT1=
EXTT2=
EXTT3=
EXTT4=
EXTT5=
EXTT6=
EXTT7=
EXTT8=
EXTT9=
EXTT10=
EXTT11=
EXTT12=
EXTT13=
EXTT14=
EXTT15=
EXTT16=
EXTT17=
PLAYORDER=
